<?xml version="1.0" encoding="iso-8859-1"?>
<!-- Generator: Adobe Illustrator 19.1.0, SVG Export Plug-In . SVG Version: 6.00 Build 0)  -->
<svg xmlns="http://www.w3.org/2000/svg" xmlns:xlink="http://www.w3.org/1999/xlink" version="1.1" id="Capa_1" x="0px" y="0px" viewBox="0 0 269.13 269.13" style="enable-background:new 0 0 269.13 269.13;" xml:space="preserve" width="512px" height="512px">
<g>
	<path d="M134.565,0c-73.92,0-134.4,60.554-134.4,134.565s60.06,134.565,134.4,134.565s134.4-60.134,134.4-134.565   C268.965,60.554,208.485,0,134.565,0z M134.565,260.72c-69.3,0-126-56.77-126-126.155s56.7-126.155,126-126.155   s126,56.349,126,126.155C260.565,203.95,203.865,260.72,134.565,260.72z" fill="#8eeb6d"/>
	<path d="M189.585,93.355c-3.78-3.785-10.5-3.785-14.28,0l-52.92,52.565l-28.56-28.175c-3.78-3.785-10.5-3.785-14.28,0l-9.24,9.251   c-3.78,3.785-3.78,10.513,0,14.298l44.94,44.995c1.68,2.103,4.62,2.944,7.14,2.944h0.42c2.94,0,5.46-0.841,7.14-2.944l68.88-68.965   c3.78-3.785,3.78-10.513,0-14.298L189.585,93.355z M192.945,111.016l-69.3,69.385c-0.42,0.421-0.84,0.421-1.26,0.421h-0.42   c-0.42,0-0.84,0-1.26-0.421l-44.52-44.995c-0.84-0.841-0.84-1.682,0-2.523l9.24-9.251c0.42-0.421,0.84-0.421,1.26-0.421   s0.84,0,1.26,0.421l31.5,31.539c1.68,1.682,4.2,1.682,5.88,0l55.44-55.929c0.42-0.421,0.84-0.421,1.26-0.421   c0.42,0,0.84,0,1.26,0.421l9.24,9.251C193.365,109.334,193.365,110.596,192.945,111.016z" fill="#8eeb6d"/>
</g>
<g>
</g>
<g>
</g>
<g>
</g>
<g>
</g>
<g>
</g>
<g>
</g>
<g>
</g>
<g>
</g>
<g>
</g>
<g>
</g>
<g>
</g>
<g>
</g>
<g>
</g>
<g>
</g>
<g>
</g>
</svg>
